<?xml version="1.0" encoding="utf-8"?>
<!-- Generator: Adobe Illustrator 19.2.1, SVG Export Plug-In . SVG Version: 6.00 Build 0)  -->
<svg version="1.1" id="Слой_1" xmlns="http://www.w3.org/2000/svg" xmlns:xlink="http://www.w3.org/1999/xlink" x="0px" y="0px"
	 viewBox="0 0 414 549" style="enable-background:new 0 0 414 549;" xml:space="preserve">
<style type="text/css">
	.st0{fill:#63A1C6;stroke:#FF0000;stroke-width:1.5118;stroke-linecap:square;stroke-miterlimit:10;}
	.st1{opacity:0.34;fill:url(#SVGID_1_);}
	.st2{opacity:0.34;fill:url(#SVGID_2_);}
	.st3{opacity:0.34;fill:url(#SVGID_3_);}
	.st4{opacity:0.34;fill:url(#SVGID_4_);}
	.st5{fill:#FFFFFF;stroke:#000000;stroke-width:0.7087;stroke-linecap:square;stroke-miterlimit:10;}
	.st6{fill:#FFFFFF;stroke:#3D3D3D;stroke-width:0.652;stroke-linecap:square;stroke-miterlimit:10;}
	.st7{fill:#FFFFFF;stroke:#3D3D3D;stroke-width:0.7087;stroke-linecap:square;stroke-miterlimit:10;}
	.st8{fill:none;stroke:#808080;stroke-width:1.5118;stroke-linecap:square;stroke-miterlimit:10;}
	.st9{fill:#FFFFFF;stroke:#808080;stroke-width:1.5118;stroke-linecap:square;stroke-miterlimit:10;}
	.st10{fill:#FFFFFF;stroke:#FFFFFF;stroke-width:2.8346;stroke-linecap:square;stroke-miterlimit:10;}
	.st11{fill:none;stroke:#000000;stroke-width:1.5118;stroke-linecap:square;stroke-miterlimit:10;}
	.st12{stroke:#000000;stroke-width:1.5118;stroke-linecap:square;stroke-miterlimit:10;}
	.st13{opacity:0.34;fill:url(#SVGID_5_);}
	.st14{opacity:0.34;fill:url(#SVGID_6_);}
</style>
<g>
	<rect x="14" y="70.5" class="st0" width="193.9" height="291.8"/>
	<rect x="233.4" y="81.9" class="st0" width="100.9" height="279.7"/>
	<rect x="233.4" y="373.7" class="st0" width="100.9" height="146.6"/>
</g>
<g>
	<rect x="14" y="72.7" class="st0" width="193.9" height="291.8"/>
	<rect x="233.4" y="84.1" class="st0" width="100.9" height="279.7"/>
	<rect x="233.4" y="375.9" class="st0" width="100.9" height="146.6"/>
</g>
<g>
	<linearGradient id="SVGID_1_" gradientUnits="userSpaceOnUse" x1="254.8167" y1="344.35" x2="254.8167" y2="93.5">
		<stop  offset="0" style="stop-color:#63A1C6;stop-opacity:0"/>
		<stop  offset="0.1751" style="stop-color:#88B7D3;stop-opacity:0.1751"/>
		<stop  offset="0.4483" style="stop-color:#BBD6E6;stop-opacity:0.4483"/>
		<stop  offset="0.6867" style="stop-color:#E0ECF4;stop-opacity:0.6867"/>
		<stop  offset="0.8787" style="stop-color:#F7FAFC;stop-opacity:0.8787"/>
		<stop  offset="1" style="stop-color:#FFFFFF"/>
	</linearGradient>
	<rect x="244" y="93.5" class="st1" width="21.6" height="250.9"/>
	<linearGradient id="SVGID_2_" gradientUnits="userSpaceOnUse" x1="280.8167" y1="202.3162" x2="280.8167" y2="93.5">
		<stop  offset="0" style="stop-color:#63A1C6;stop-opacity:0"/>
		<stop  offset="0.1751" style="stop-color:#88B7D3;stop-opacity:0.1751"/>
		<stop  offset="0.4483" style="stop-color:#BBD6E6;stop-opacity:0.4483"/>
		<stop  offset="0.6867" style="stop-color:#E0ECF4;stop-opacity:0.6867"/>
		<stop  offset="0.8787" style="stop-color:#F7FAFC;stop-opacity:0.8787"/>
		<stop  offset="1" style="stop-color:#FFFFFF"/>
	</linearGradient>
	<rect x="270" y="93.5" class="st2" width="21.6" height="108.8"/>
</g>
<g>
	<linearGradient id="SVGID_3_" gradientUnits="userSpaceOnUse" x1="252.6333" y1="510.1167" x2="252.6333" y2="382.8167">
		<stop  offset="0" style="stop-color:#63A1C6;stop-opacity:0"/>
		<stop  offset="0.1751" style="stop-color:#88B7D3;stop-opacity:0.1751"/>
		<stop  offset="0.4483" style="stop-color:#BBD6E6;stop-opacity:0.4483"/>
		<stop  offset="0.6867" style="stop-color:#E0ECF4;stop-opacity:0.6867"/>
		<stop  offset="0.8787" style="stop-color:#F7FAFC;stop-opacity:0.8787"/>
		<stop  offset="1" style="stop-color:#FFFFFF"/>
	</linearGradient>
	<rect x="241.8" y="382.8" class="st3" width="21.6" height="127.3"/>
	<linearGradient id="SVGID_4_" gradientUnits="userSpaceOnUse" x1="278.6334" y1="438.0381" x2="278.6334" y2="382.8167">
		<stop  offset="0" style="stop-color:#63A1C6;stop-opacity:0"/>
		<stop  offset="0.1751" style="stop-color:#88B7D3;stop-opacity:0.1751"/>
		<stop  offset="0.4483" style="stop-color:#BBD6E6;stop-opacity:0.4483"/>
		<stop  offset="0.6867" style="stop-color:#E0ECF4;stop-opacity:0.6867"/>
		<stop  offset="0.8787" style="stop-color:#F7FAFC;stop-opacity:0.8787"/>
		<stop  offset="1" style="stop-color:#FFFFFF"/>
	</linearGradient>
	<rect x="267.8" y="382.8" class="st4" width="21.6" height="55.2"/>
</g>
<polygon class="st5" points="216.4,59.2 216.4,543 227.7,527.9 227.7,74.3 "/>
<polygon class="st5" points="351.3,59.2 216.4,59.2 227.7,74.3 340,74.3 "/>
<polygon class="st5" points="351.3,543 351.3,59.2 340,74.3 340,527.9 "/>
<polygon class="st5" points="216.4,543 351.3,543 340,527.9 227.7,527.9 "/>
<g>
	<polygon class="st6" points="216.4,59.2 5.5,59.2 16.8,74.3 205,74.3 	"/>
	<polygon class="st6" points="216.4,374.4 216.4,59.2 205,74.3 205,359.3 	"/>
	<g>
		<polygon class="st6" points="5.5,59.2 5.5,374.4 16.8,359.3 16.8,74.3 		"/>
		<polygon class="st6" points="5.5,374.4 216.4,374.4 205,359.3 16.8,359.3 		"/>
	</g>
</g>
<rect x="232.8" y="357.8" class="st6" width="102" height="19.7"/>
<g>
	
		<image style="overflow:visible;" width="142" height="486" xlink:href="59585F4B.png"  transform="matrix(1 0 0 1 213.4961 58.4961)">
	</image>
	<g>
		<g>
			<polygon class="st7" points="223.2,533.9 345.1,533.9 331.5,516.5 236.2,516.5 			"/>
			<polygon class="st7" points="345.1,533.9 345.1,68.3 331.5,85.7 331.5,516.5 			"/>
			<polygon class="st7" points="345.1,68.3 223.2,68.3 236.2,85.7 331.5,85.7 			"/>
			<polygon class="st7" points="223.2,68.3 223.2,533.9 236.2,516.5 236.2,85.7 			"/>
		</g>
	</g>
</g>
<line class="st8" x1="185.2" y1="533.9" x2="185.2" y2="533.9"/>
<path class="st9" d="M109.2,374c0-1,0.6-1.9,1.4-1.9s1.4,0.8,1.4,1.9s-0.6,1.9-1.4,1.9S109.2,375.1,109.2,374L109.2,374z"/>
<line class="st8" x1="277" y1="533.9" x2="277" y2="533.9"/>
<line class="st8" x1="277" y1="292" x2="277" y2="292"/>
<line class="st8" x1="57.1" y1="238.3" x2="57.1" y2="238.3"/>
<line class="st8" x1="287.8" y1="300.3" x2="287.8" y2="300.3"/>
<line class="st8" x1="245.9" y1="453" x2="245.9" y2="453"/>
<line class="st10" x1="325.3" y1="513.1" x2="283.8" y2="88"/>
<line class="st10" x1="283.8" y1="87.7" x2="242.3" y2="513.1"/>
<line class="st10" x1="327.3" y1="91.3" x2="239.1" y2="298.6"/>
<line class="st10" x1="239.1" y1="299.1" x2="325.3" y2="513.1"/>
<rect x="226" y="288.2" class="st6" width="7.4" height="25.7"/>
<polygon class="st6" points="227.1,327.5 232.2,327.5 231.7,298.1 227.1,298.1 "/>
<line class="st11" x1="371.1" y1="543" x2="359.2" y2="543"/>
<line class="st11" x1="371.1" y1="59.2" x2="359.2" y2="59.2"/>
<line class="st11" x1="383" y1="543" x2="371.1" y2="543"/>
<line class="st11" x1="383" y1="59.2" x2="371.1" y2="59.2"/>
<g>
	<path d="M413.6,354h-1.2l-2.7-3.1c-9.5-10.6-13.3-14.2-18.3-14.2c-3.5,0-7.5,1.6-7.5,7.9c0,3.2,1.6,5.7,2.9,7.3l-1.1,0.9
		c-2.2-2.3-3.4-5.3-3.4-8.6c0-7.3,5.4-9.3,8.5-9.3c6.2,0,10.7,4.7,19.1,14.2l2,2.2h0.1v-17.4h1.6V354z"/>
	<path d="M384.8,319.5L384.8,319.5l2.9,5.3l-1.5,0.5l-3.3-5.7v-1.9h30.7v1.8L384.8,319.5L384.8,319.5z"/>
	<path d="M384.6,286.3v13l10.4,1.6c-0.1-0.8-0.3-1.7-0.3-3.4c0-2.1,0.3-3.8,0.9-5.7c1-2.8,4-5.8,8.3-5.8c6.3,0,10.3,4.9,10.3,11.1
		c0,3.6-1.2,6.4-2.2,7.9l-1.4-0.9c0.9-1.4,2.1-4,2.1-7.3c0-5.1-3.7-9-8.1-9s-8.1,2.9-8.1,9.9c0,2.1,0.2,3.8,0.3,5.1l-13.7-2v-14.5
		L384.6,286.3L384.6,286.3z"/>
	<path d="M397.7,256.3c11.1,0,16.5,4.3,16.5,11.1c0,5.1-4.6,10.3-15.7,10.3c-11.3,0-16.1-5.7-16.1-11.1
		C382.4,260.7,387.1,256.3,397.7,256.3z M398.5,275.9c9,0,14.1-3.7,14.1-8.8c0-6.1-5.9-9-14.6-9c-8.3,0-14.1,2.7-14.1,8.9
		C383.9,271.8,388.9,275.9,398.5,275.9z"/>
</g>
<g>
	<line class="st11" x1="376.2" y1="59.2" x2="376.2" y2="543"/>
	<polygon class="st12" points="376.2,59.2 373.9,71.3 376.2,68.3 378.5,71.3 	"/>
	<polygon class="st12" points="376.2,543 373.9,530.9 376.2,533.9 378.5,530.9 	"/>
</g>
<line class="st11" x1="353.1" y1="34.5" x2="353.1" y2="53.6"/>
<line class="st11" x1="5.6" y1="34.5" x2="5.6" y2="53.6"/>
<g>
	<line class="st11" x1="8" y1="38.4" x2="350.9" y2="38.4"/>
	<polygon class="st12" points="8,38.4 16.6,40.6 14.4,38.4 16.6,36.1 	"/>
	<polygon class="st12" points="350.9,38.4 342.3,40.6 344.5,38.4 342.3,36.1 	"/>
</g>
<g>
	<path d="M144.9,31.3v-1.2l3.1-2.7c10.6-9.5,14.2-13.3,14.2-18.3c0-3.5-1.6-7.5-7.9-7.5c-3.2,0-5.7,1.6-7.3,2.9l-0.9-1.1
		c2.3-2.2,5.3-3.4,8.6-3.4c7.3,0,9.3,5.4,9.3,8.5c0,6.2-4.7,10.7-14.2,19.1l-2.2,2v0.1H165v1.6C165,31.3,144.9,31.3,144.9,31.3z"/>
	<path d="M193.7,15.4c0,11.1-4.3,16.5-11.1,16.5c-5.1,0-10.3-4.6-10.3-15.7c0-11.3,5.7-16.1,11.1-16.1C189.3,0,193.7,4.7,193.7,15.4
		z M174.1,16.2c0,9,3.7,14.1,8.8,14.1c6.1,0,9-5.9,9-14.6c0-8.3-2.7-14.1-8.9-14.1C178.2,1.6,174.1,6.5,174.1,16.2z"/>
	<path d="M222.5,2.2h-13l-1.6,10.4c0.8-0.1,1.7-0.3,3.4-0.3c2.1,0,3.8,0.3,5.7,0.9c2.8,1,5.8,4,5.8,8.3c0,6.3-5,10.3-11.1,10.3
		c-3.6,0-6.4-1.2-7.9-2.2l0.9-1.4c1.3,0.9,4,2.1,7.3,2.1c5.1,0,9-3.7,9-8.1s-2.9-8.1-9.9-8.1c-2.1,0-3.8,0.2-5.1,0.3l2-13.7h14.5
		L222.5,2.2L222.5,2.2z"/>
	<path d="M252.6,15.4c0,11.1-4.3,16.5-11.1,16.5c-5.1,0-10.3-4.6-10.3-15.7c0-11.3,5.7-16.1,11.1-16.1C248.2,0,252.6,4.7,252.6,15.4
		z M233,16.2c0,9,3.7,14.1,8.8,14.1c6.1,0,9-5.9,9-14.6c0-8.3-2.7-14.1-8.9-14.1C237.1,1.6,233,6.5,233,16.2z"/>
</g>
<g>
	<linearGradient id="SVGID_5_" gradientUnits="userSpaceOnUse" x1="34.4833" y1="354" x2="34.4833" y2="80.25">
		<stop  offset="0" style="stop-color:#63A1C6;stop-opacity:0"/>
		<stop  offset="0.1751" style="stop-color:#88B7D3;stop-opacity:0.1751"/>
		<stop  offset="0.4483" style="stop-color:#BBD6E6;stop-opacity:0.4483"/>
		<stop  offset="0.6867" style="stop-color:#E0ECF4;stop-opacity:0.6867"/>
		<stop  offset="0.8787" style="stop-color:#F7FAFC;stop-opacity:0.8787"/>
		<stop  offset="1" style="stop-color:#FFFFFF"/>
	</linearGradient>
	<rect x="23.7" y="80.3" class="st13" width="21.6" height="273.8"/>
	<linearGradient id="SVGID_6_" gradientUnits="userSpaceOnUse" x1="60.4833" y1="199" x2="60.4833" y2="80.25">
		<stop  offset="0" style="stop-color:#63A1C6;stop-opacity:0"/>
		<stop  offset="0.1751" style="stop-color:#88B7D3;stop-opacity:0.1751"/>
		<stop  offset="0.4483" style="stop-color:#BBD6E6;stop-opacity:0.4483"/>
		<stop  offset="0.6867" style="stop-color:#E0ECF4;stop-opacity:0.6867"/>
		<stop  offset="0.8787" style="stop-color:#F7FAFC;stop-opacity:0.8787"/>
		<stop  offset="1" style="stop-color:#FFFFFF"/>
	</linearGradient>
	<rect x="49.7" y="80.3" class="st14" width="21.6" height="118.8"/>
</g>
</svg>
