<?xml version="1.0" encoding="utf-8"?>
<!-- Generator: Adobe Illustrator 19.2.1, SVG Export Plug-In . SVG Version: 6.00 Build 0)  -->
<svg version="1.1" id="Слой_1" xmlns="http://www.w3.org/2000/svg" xmlns:xlink="http://www.w3.org/1999/xlink" x="0px" y="0px"
	 viewBox="0 0 423.2 567" style="enable-background:new 0 0 423.2 567;" xml:space="preserve">
<style type="text/css">
	.st0{fill:#63A1C6;stroke:#FF0000;stroke-width:1.5118;stroke-linecap:square;stroke-miterlimit:10;}
	.st1{fill:#FFFFFF;stroke:#000000;stroke-width:0.7087;stroke-linecap:square;stroke-miterlimit:10;}
	.st2{fill:none;stroke:#808080;stroke-width:1.5118;stroke-linecap:square;stroke-miterlimit:10;}
	.st3{fill:none;stroke:#FFFFFF;stroke-width:4;stroke-miterlimit:10;}
	.st4{fill:none;stroke:#000000;stroke-width:1.5118;stroke-linecap:square;stroke-miterlimit:10;}
	.st5{enable-background:new    ;}
	.st6{stroke:#000000;stroke-width:1.5118;stroke-linecap:square;stroke-miterlimit:10;}
	.st7{opacity:0.34;fill:url(#SVGID_1_);}
	.st8{opacity:0.34;fill:url(#SVGID_2_);}
	.st9{opacity:0.34;fill:url(#SVGID_3_);}
	.st10{opacity:0.34;fill:url(#SVGID_4_);}
</style>
<rect x="24.4" y="26.2" class="st0" width="134.9" height="447.5"/>
<rect x="186" y="43.6" class="st0" width="135.5" height="412.7"/>
<rect x="155.3" y="24" class="st1" width="22.1" height="452"/>
<polygon class="st1" points="10.8,8.1 10.8,491.9 28.3,468.4 28.3,31.5 "/>
<polygon class="st1" points="347.5,8.1 10.8,8.1 28.3,31.5 330,31.5 "/>
<polygon class="st1" points="347.5,491.9 347.5,8.1 330,31.5 330,468.4 "/>
<polygon class="st1" points="10.8,491.9 347.5,491.9 330,468.4 28.3,468.4 "/>
<g>
	
		<image style="overflow:visible;" width="188" height="477" xlink:href="1F47335D.png"  transform="matrix(1 0 0 1 160.4961 11.9961)">
	</image>
	<g>
		<g>
			<polygon class="st1" points="170.1,478.3 337.3,478.3 317.5,451.8 189.9,451.8 			"/>
			<polygon class="st1" points="337.3,478.3 337.3,21.7 317.5,48.2 317.5,451.8 			"/>
			<polygon class="st1" points="337.3,21.7 170.1,21.7 189.9,48.2 317.5,48.2 			"/>
			<polygon class="st1" points="170.1,21.7 170.1,478.3 189.9,451.8 189.9,48.2 			"/>
		</g>
	</g>
</g>
<line class="st2" x1="189.4" y1="478.3" x2="189.4" y2="478.3"/>
<line class="st2" x1="243.2" y1="236.4" x2="243.2" y2="236.4"/>
<line class="st2" x1="60.1" y1="282.5" x2="60.1" y2="282.5"/>
<line class="st2" x1="201.3" y1="279.5" x2="201.3" y2="279.5"/>
<line class="st3" x1="309" y1="446" x2="253.2" y2="54.5"/>
<line class="st3" x1="253.2" y1="54.5" x2="197" y2="446"/>
<line class="st3" x1="309" y1="54.5" x2="197" y2="250.3"/>
<line class="st3" x1="197" y1="250.3" x2="309" y2="446"/>
<rect x="174.6" y="229.6" class="st1" width="10.8" height="40.8"/>
<rect x="176.3" y="244.7" class="st1" width="7.4" height="46.1"/>
<line class="st4" x1="375.8" y1="492.1" x2="364" y2="492.1"/>
<line class="st4" x1="375.8" y1="8.4" x2="364" y2="8.4"/>
<g class="st5">
	<path d="M391.3,258.5L391.3,258.5l2.9,5.3l-1.5,0.4l-3.3-5.7v-1.9h30.7v1.8h-28.8L391.3,258.5L391.3,258.5z"/>
	<path d="M420.1,228.7H411v16.8h-1.3l-20.3-17.6v-1.1h20v-5.4h1.6v5.4h9.1L420.1,228.7L420.1,228.7z M409.3,228.7h-13.6
		c-1.1,0-2.3,0-3.4-0.2v0.2c1.3,0.9,2.2,1.6,3,2.3l14,12.1h0.1v-14.4L409.3,228.7L409.3,228.7z"/>
	<path d="M404.1,193.9c11.1,0,16.5,4.3,16.5,11.1c0,5.1-4.6,10.3-15.7,10.3c-11.3,0-16.1-5.7-16.1-11.1
		C388.8,198.3,393.5,193.9,404.1,193.9z M405,213.5c9,0,14.1-3.7,14.1-8.8c0-6.1-5.9-9-14.6-9c-8.3,0-14.1,2.7-14.1,8.9
		C390.5,209.4,395.3,213.5,405,213.5z"/>
</g>
<g class="st5">
	<path d="M404.1,167.7c11.1,0,16.5,4.3,16.5,11.1c0,5.1-4.6,10.3-15.7,10.3c-11.3,0-16.1-5.7-16.1-11.1
		C388.8,172.1,393.5,167.7,404.1,167.7z M405,187.3c9,0,14.1-3.7,14.1-8.8c0-6.1-5.9-9-14.6-9c-8.3,0-14.1,2.7-14.1,8.9
		C390.5,183.2,395.3,187.3,405,187.3z"/>
</g>
<line class="st4" x1="387.8" y1="8.4" x2="375.8" y2="8.4"/>
<line class="st4" x1="387.8" y1="492.1" x2="375.8" y2="492.1"/>
<line class="st4" x1="386" y1="8.4" x2="386" y2="492.1"/>
<polygon class="st6" points="386,8.4 383.8,20.5 386,17.5 388.3,20.5 "/>
<polygon class="st6" points="386,492.1 383.8,480 386,483 388.3,480 "/>
<line class="st4" x1="348.4" y1="529.1" x2="348.4" y2="503.4"/>
<g class="st5">
	<path d="M126.3,535.2L126.3,535.2l-5.4,2.9l-0.5-1.5l5.7-3.3h1.9V564h-1.8v-28.8L126.3,535.2L126.3,535.2z"/>
	<path d="M140.4,560.9c1.6,0.9,4.2,2.2,7.6,2.2c7.5,0,9.1-5.1,9.1-7.4c0-5.6-5.6-7.6-10.6-7.6h-2.3v-1.6h2.4c4.1,0,9.1-2,9.1-6.4
		c0-2.7-1.8-5.9-7-5.9c-2.7,0-5.1,1.1-6.8,2.3l-0.9-1.3c1.7-1.3,4.8-2.6,7.8-2.6c6.7,0,8.8,3.9,8.8,7.2c0,3.2-2.3,5.9-6.3,7.2v0.1
		c4.4,0.9,7.6,4,7.6,8.2s-3.2,9.1-11.2,9.1c-3.6,0-6.6-1.3-8.1-2.3L140.4,560.9z"/>
	<path d="M186.9,548c0,11.1-4.3,16.5-11.1,16.5c-5.1,0-10.3-4.6-10.3-15.7c0-11.3,5.7-16.1,11.1-16.1
		C182.5,532.7,186.9,537.4,186.9,548z M167.3,548.9c0,9,3.7,14.1,8.8,14.1c6.1,0,9-5.9,9-14.6c0-8.3-2.7-14.1-8.9-14.1
		C171.4,534.3,167.3,539.2,167.3,548.9z"/>
</g>
<g class="st5">
	<path d="M212.3,548c0,11.1-4.3,16.5-11.1,16.5c-5.1,0-10.3-4.6-10.3-15.7c0-11.3,5.7-16.1,11.1-16.1
		C207.9,532.7,212.3,537.4,212.3,548z M192.7,548.9c0,9,3.7,14.1,8.8,14.1c6.1,0,9-5.9,9-14.6c0-8.3-2.7-14.1-8.9-14.1
		C196.8,534.3,192.7,539.2,192.7,548.9z"/>
</g>
<line class="st4" x1="11.7" y1="526.7" x2="348.4" y2="526.7"/>
<polygon class="st6" points="11.7,526.7 20.7,523.7 18.5,526.7 20.7,529.8 "/>
<polygon class="st6" points="348.4,526.7 339.4,523.7 341.6,526.7 339.4,529.8 "/>
<line class="st4" x1="10.8" y1="529.1" x2="10.8" y2="503.4"/>
<g>
	<linearGradient id="SVGID_1_" gradientUnits="userSpaceOnUse" x1="47.1" y1="444.225" x2="47.1" y2="41.875">
		<stop  offset="0" style="stop-color:#63A1C6;stop-opacity:0"/>
		<stop  offset="0.1751" style="stop-color:#88B7D3;stop-opacity:0.1751"/>
		<stop  offset="0.4483" style="stop-color:#BBD6E6;stop-opacity:0.4483"/>
		<stop  offset="0.6867" style="stop-color:#E0ECF4;stop-opacity:0.6867"/>
		<stop  offset="0.8787" style="stop-color:#F7FAFC;stop-opacity:0.8787"/>
		<stop  offset="1" style="stop-color:#FFFFFF"/>
	</linearGradient>
	<rect x="36.3" y="41.9" class="st7" width="21.6" height="402.4"/>
	<linearGradient id="SVGID_2_" gradientUnits="userSpaceOnUse" x1="73.1" y1="216.4104" x2="73.1" y2="41.875">
		<stop  offset="0" style="stop-color:#63A1C6;stop-opacity:0"/>
		<stop  offset="0.1751" style="stop-color:#88B7D3;stop-opacity:0.1751"/>
		<stop  offset="0.4483" style="stop-color:#BBD6E6;stop-opacity:0.4483"/>
		<stop  offset="0.6867" style="stop-color:#E0ECF4;stop-opacity:0.6867"/>
		<stop  offset="0.8787" style="stop-color:#F7FAFC;stop-opacity:0.8787"/>
		<stop  offset="1" style="stop-color:#FFFFFF"/>
	</linearGradient>
	<rect x="62.3" y="41.9" class="st8" width="21.6" height="174.5"/>
</g>
<g>
	<linearGradient id="SVGID_3_" gradientUnits="userSpaceOnUse" x1="212.1005" y1="432" x2="212.1005" y2="59.275">
		<stop  offset="0" style="stop-color:#63A1C6;stop-opacity:0"/>
		<stop  offset="0.1751" style="stop-color:#88B7D3;stop-opacity:0.1751"/>
		<stop  offset="0.4483" style="stop-color:#BBD6E6;stop-opacity:0.4483"/>
		<stop  offset="0.6867" style="stop-color:#E0ECF4;stop-opacity:0.6867"/>
		<stop  offset="0.8787" style="stop-color:#F7FAFC;stop-opacity:0.8787"/>
		<stop  offset="1" style="stop-color:#FFFFFF"/>
	</linearGradient>
	<rect x="201.3" y="59.3" class="st9" width="21.6" height="372.7"/>
	<linearGradient id="SVGID_4_" gradientUnits="userSpaceOnUse" x1="238.1005" y1="220.9594" x2="238.1005" y2="59.275">
		<stop  offset="0" style="stop-color:#63A1C6;stop-opacity:0"/>
		<stop  offset="0.1751" style="stop-color:#88B7D3;stop-opacity:0.1751"/>
		<stop  offset="0.4483" style="stop-color:#BBD6E6;stop-opacity:0.4483"/>
		<stop  offset="0.6867" style="stop-color:#E0ECF4;stop-opacity:0.6867"/>
		<stop  offset="0.8787" style="stop-color:#F7FAFC;stop-opacity:0.8787"/>
		<stop  offset="1" style="stop-color:#FFFFFF"/>
	</linearGradient>
	<rect x="227.3" y="59.3" class="st10" width="21.6" height="161.7"/>
</g>
</svg>
