<?xml version="1.0" encoding="utf-8"?>
<!-- Generator: Adobe Illustrator 19.2.1, SVG Export Plug-In . SVG Version: 6.00 Build 0)  -->
<svg version="1.1" id="Слой_1" xmlns="http://www.w3.org/2000/svg" xmlns:xlink="http://www.w3.org/1999/xlink" x="0px" y="0px"
	 viewBox="0 0 625 579" style="enable-background:new 0 0 625 579;" xml:space="preserve">
<style type="text/css">
	.st0{fill:#63A1C6;stroke:#FF0000;stroke-width:1.5118;stroke-linecap:square;stroke-miterlimit:10;}
	.st1{fill:#FFFFFF;stroke:#000000;stroke-width:1.5118;stroke-linecap:square;stroke-miterlimit:10;}
	.st2{fill:#FFFFFF;stroke:#000000;stroke-width:0.7087;stroke-linecap:square;stroke-miterlimit:10;}
	.st3{fill:none;stroke:#808080;stroke-width:1.5118;stroke-linecap:square;stroke-miterlimit:10;}
	.st4{fill:none;stroke:#FFFFFF;stroke-width:4;stroke-linecap:square;stroke-miterlimit:10;}
	.st5{fill:none;stroke:#000000;stroke-width:1.5118;stroke-linecap:square;stroke-miterlimit:10;}
	.st6{fill:none;}
	.st7{font-family:'ArialMT';}
	.st8{font-size:12.1787px;}
	.st9{stroke:#000000;stroke-width:1.5118;stroke-linecap:square;stroke-miterlimit:10;}
	.st10{opacity:0.34;fill:url(#SVGID_1_);enable-background:new    ;}
	.st11{opacity:0.34;fill:url(#SVGID_2_);enable-background:new    ;}
	.st12{opacity:0.34;fill:url(#SVGID_3_);enable-background:new    ;}
	.st13{opacity:0.34;fill:url(#SVGID_4_);enable-background:new    ;}
	.st14{opacity:0.34;fill:url(#SVGID_5_);enable-background:new    ;}
	.st15{opacity:0.34;fill:url(#SVGID_6_);enable-background:new    ;}
</style>
<rect x="31.5" y="32" class="st0" width="147.3" height="439.6"/>
<rect x="205.2" y="49" class="st0" width="147.3" height="405.9"/>
<rect x="379" y="32" class="st0" width="147.3" height="439.6"/>
<rect x="361.7" y="30.5" class="st1" width="21.8" height="442.7"/>
<rect x="174.8" y="30.5" class="st1" width="21.8" height="442.7"/>
<polygon class="st2" points="18.3,14.4 18.3,489.2 35.5,466.3 35.5,37.4 "/>
<polygon class="st2" points="539.5,14.4 18.3,14.4 35.5,37.4 522.3,37.4 "/>
<polygon class="st2" points="539.5,489.2 539.5,14.4 522.3,37.4 522.3,466.3 "/>
<polygon class="st2" points="18.3,489.2 539.5,489.2 522.3,466.3 35.5,466.3 "/>
<g>
	<g>
		<g>
			<polygon class="st2" points="189.1,476.3 368.6,476.3 349.1,449.4 209.3,449.4 			"/>
			<polygon class="st2" points="368.6,476.3 368.6,27.5 349.1,54.3 349.1,449.4 			"/>
			<polygon class="st2" points="368.6,27.5 189.1,27.5 209.3,54.3 349.1,54.3 			"/>
			<polygon class="st2" points="189.1,27.5 189.1,476.3 209.3,449.4 209.3,54.3 			"/>
		</g>
	</g>
</g>
<line class="st3" x1="289.3" y1="475.4" x2="289.3" y2="475.4"/>
<line class="st3" x1="289.3" y1="238.5" x2="289.3" y2="238.5"/>
<line class="st3" x1="69.4" y1="284.4" x2="69.4" y2="284.4"/>
<line class="st3" x1="243.2" y1="280.6" x2="243.2" y2="280.6"/>
<line class="st3" x1="396.8" y1="284.4" x2="396.8" y2="284.4"/>
<line class="st4" x1="342.3" y1="443.5" x2="277.6" y2="65.3"/>
<line class="st4" x1="277.6" y1="65.3" x2="215.4" y2="443.5"/>
<line class="st4" x1="342.3" y1="64.2" x2="216.9" y2="254.4"/>
<line class="st4" x1="216.9" y1="256.2" x2="342.3" y2="443.5"/>
<rect x="193.8" y="232.3" class="st2" width="11" height="39.2"/>
<rect x="195.5" y="246.9" class="st2" width="7.5" height="45.3"/>
<line class="st5" x1="566" y1="487.8" x2="553.8" y2="487.8"/>
<line class="st5" x1="566" y1="13.8" x2="553.8" y2="13.8"/>
<g>
	<path d="M589.4,274.1L589.4,274.1l2.9,5.4l-1.5,0.5l-3.3-5.8v-1.9h31.2v1.8H589.4L589.4,274.1z"/>
	<path d="M618.7,244.6h-9.2v17.1h-1.3l-20.6-17.9v-1.1h20.3v-5.5h1.6v5.5h9.2L618.7,244.6L618.7,244.6z M607.8,244.6H594
		c-1.1,0-2.3,0-3.5-0.2v0.2c1.3,0.9,2.2,1.6,3,2.3l14.2,12.3h0.1L607.8,244.6L607.8,244.6z"/>
	<path d="M602.6,209.9c11.3,0,16.7,4.4,16.7,11.3c0,5.2-4.7,10.5-15.9,10.5c-11.5,0-16.3-5.8-16.3-11.3
		C586.8,214.4,591.7,209.9,602.6,209.9z M603.4,229.8c9.1,0,14.3-3.8,14.3-8.9c0-6.2-6-9.1-14.8-9.1c-8.4,0-14.3,2.7-14.3,9
		C588.5,225.7,593.4,229.8,603.4,229.8z"/>
	<path d="M602.6,181.9c11.3,0,16.7,4.4,16.7,11.3c0,5.2-4.7,10.5-15.9,10.5c-11.5,0-16.3-5.8-16.3-11.3
		C586.8,186.3,591.7,181.9,602.6,181.9z M603.4,201.7c9.1,0,14.3-3.8,14.3-8.9c0-6.2-6-9.1-14.8-9.1c-8.4,0-14.3,2.7-14.3,9
		C588.5,197.7,593.4,201.7,603.4,201.7z"/>
</g>
<line class="st5" x1="578.1" y1="13.8" x2="566" y2="13.8"/>
<line class="st5" x1="578.1" y1="487.8" x2="566" y2="487.8"/>
<path id="SVGID_x5F_1_x5F_" class="st6" d="M576.4,13.8v474.1"/>
<text transform="matrix(1 0 0 1 576.3141 199.9299)" class="st7 st8"> </text>
<text transform="matrix(1 0 0 1 -12.9838 -35.5564)" class="st7 st8"> </text>
<polygon class="st9" points="576.4,13.8 574.1,26 576.4,23 578.7,26 "/>
<polygon class="st9" points="576.4,487.8 574.1,475.5 576.4,478.7 578.7,475.5 "/>
<g>
	<path d="M200.9,570.7v-1.2l3.1-2.7c10.8-9.6,14.4-13.5,14.4-18.6c0-3.6-1.6-7.6-8-7.6c-3.2,0-5.8,1.6-7.4,2.9l-0.9-1.1
		c2.3-2.2,5.4-3.5,8.7-3.5c7.4,0,9.4,5.5,9.4,8.6c0,6.3-4.8,10.9-14.4,19.4l-2.2,2v0.1h17.7v1.6L200.9,570.7L200.9,570.7z"/>
	<path d="M248.7,554.6c0,11.3-4.4,16.7-11.3,16.7c-5.2,0-10.5-4.7-10.5-15.9c0-11.5,5.8-16.3,11.3-16.3
		C244.2,539,248.7,543.8,248.7,554.6z M228.8,555.4c0,9.1,3.8,14.3,8.9,14.3c6.2,0,9.1-6,9.1-14.8c0-8.4-2.7-14.3-9-14.3
		C232.9,540.6,228.8,545.7,228.8,555.4z"/>
	<path d="M272.5,541.2h-13.2l-1.6,10.6c0.8-0.1,1.7-0.3,3.5-0.3c2.1,0,3.9,0.3,5.8,0.9c2.8,1,5.9,4.1,5.9,8.4
		c0,6.4-5,10.5-11.3,10.5c-3.7,0-6.5-1.2-8-2.2l0.9-1.4c1.3,0.9,4.1,2.1,7.4,2.1c5.2,0,9.1-3.8,9.1-8.2s-2.9-8.2-10-8.2
		c-2.1,0-3.9,0.2-5.2,0.3l2-13.9h14.7V541.2L272.5,541.2z"/>
	<path d="M301.4,554.6c0,11.3-4.4,16.7-11.3,16.7c-5.2,0-10.5-4.7-10.5-15.9c0-11.5,5.8-16.3,11.3-16.3
		C297,539,301.4,543.8,301.4,554.6z M281.5,555.4c0,9.1,3.8,14.3,8.9,14.3c6.2,0,9.1-6,9.1-14.8c0-8.4-2.7-14.3-9-14.3
		C285.7,540.6,281.5,545.7,281.5,555.4z"/>
</g>
<line class="st5" x1="18.3" y1="533.5" x2="18.3" y2="517.4"/>
<line class="st5" x1="539.5" y1="533.5" x2="539.5" y2="517.4"/>
<line class="st5" x1="18.3" y1="531.2" x2="539.5" y2="531.2"/>
<polygon class="st9" points="18.3,531.2 27.4,528.1 25.2,531.2 27.4,534.2 "/>
<polygon class="st9" points="539.5,531.2 530.3,528.1 532.6,531.2 530.3,534.2 "/>
<line class="st5" x1="576.4" y1="22.4" x2="576.4" y2="479.4"/>
<g>
	
		<linearGradient id="SVGID_1_" gradientUnits="userSpaceOnUse" x1="56.2323" y1="99.4632" x2="56.2323" y2="507.8569" gradientTransform="matrix(1 0 0 -1 0 554)">
		<stop  offset="0" style="stop-color:#63A1C6;stop-opacity:0"/>
		<stop  offset="0.1751" style="stop-color:#88B7D3;stop-opacity:0.1751"/>
		<stop  offset="0.4483" style="stop-color:#BBD6E6;stop-opacity:0.4483"/>
		<stop  offset="0.6867" style="stop-color:#E0ECF4;stop-opacity:0.6867"/>
		<stop  offset="0.8787" style="stop-color:#F7FAFC;stop-opacity:0.8787"/>
		<stop  offset="1" style="stop-color:#FFFFFF"/>
	</linearGradient>
	<rect x="45.3" y="46.1" class="st10" width="21.9" height="408.4"/>
	
		<linearGradient id="SVGID_2_" gradientUnits="userSpaceOnUse" x1="82.6195" y1="330.7577" x2="82.6195" y2="507.8569" gradientTransform="matrix(1 0 0 -1 0 554)">
		<stop  offset="0" style="stop-color:#63A1C6;stop-opacity:0"/>
		<stop  offset="0.1751" style="stop-color:#88B7D3;stop-opacity:0.1751"/>
		<stop  offset="0.4483" style="stop-color:#BBD6E6;stop-opacity:0.4483"/>
		<stop  offset="0.6867" style="stop-color:#E0ECF4;stop-opacity:0.6867"/>
		<stop  offset="0.8787" style="stop-color:#F7FAFC;stop-opacity:0.8787"/>
		<stop  offset="1" style="stop-color:#FFFFFF"/>
	</linearGradient>
	<rect x="71.7" y="46.1" class="st11" width="21.9" height="177.1"/>
</g>
<g>
	
		<linearGradient id="SVGID_3_" gradientUnits="userSpaceOnUse" x1="229.9823" y1="119.4566" x2="229.9823" y2="489.7917" gradientTransform="matrix(1 0 0 -1 0 554)">
		<stop  offset="0" style="stop-color:#63A1C6;stop-opacity:0"/>
		<stop  offset="0.1751" style="stop-color:#88B7D3;stop-opacity:0.1751"/>
		<stop  offset="0.4483" style="stop-color:#BBD6E6;stop-opacity:0.4483"/>
		<stop  offset="0.6867" style="stop-color:#E0ECF4;stop-opacity:0.6867"/>
		<stop  offset="0.8787" style="stop-color:#F7FAFC;stop-opacity:0.8787"/>
		<stop  offset="1" style="stop-color:#FFFFFF"/>
	</linearGradient>
	<rect x="219" y="64.2" class="st12" width="21.9" height="370.3"/>
	
		<linearGradient id="SVGID_4_" gradientUnits="userSpaceOnUse" x1="256.3695" y1="329.1339" x2="256.3695" y2="489.7917" gradientTransform="matrix(1 0 0 -1 0 554)">
		<stop  offset="0" style="stop-color:#63A1C6;stop-opacity:0"/>
		<stop  offset="0.1751" style="stop-color:#88B7D3;stop-opacity:0.1751"/>
		<stop  offset="0.4483" style="stop-color:#BBD6E6;stop-opacity:0.4483"/>
		<stop  offset="0.6867" style="stop-color:#E0ECF4;stop-opacity:0.6867"/>
		<stop  offset="0.8787" style="stop-color:#F7FAFC;stop-opacity:0.8787"/>
		<stop  offset="1" style="stop-color:#FFFFFF"/>
	</linearGradient>
	<rect x="245.4" y="64.2" class="st13" width="21.9" height="160.7"/>
</g>
<g>
	
		<linearGradient id="SVGID_5_" gradientUnits="userSpaceOnUse" x1="407.7918" y1="94.9977" x2="407.7918" y2="507.8569" gradientTransform="matrix(1 0 0 -1 0 554)">
		<stop  offset="0" style="stop-color:#63A1C6;stop-opacity:0"/>
		<stop  offset="0.1751" style="stop-color:#88B7D3;stop-opacity:0.1751"/>
		<stop  offset="0.4483" style="stop-color:#BBD6E6;stop-opacity:0.4483"/>
		<stop  offset="0.6867" style="stop-color:#E0ECF4;stop-opacity:0.6867"/>
		<stop  offset="0.8787" style="stop-color:#F7FAFC;stop-opacity:0.8787"/>
		<stop  offset="1" style="stop-color:#FFFFFF"/>
	</linearGradient>
	<rect x="396.8" y="46.1" class="st14" width="21.9" height="412.9"/>
	
		<linearGradient id="SVGID_6_" gradientUnits="userSpaceOnUse" x1="434.1791" y1="328.8294" x2="434.1791" y2="507.8569" gradientTransform="matrix(1 0 0 -1 0 554)">
		<stop  offset="0" style="stop-color:#63A1C6;stop-opacity:0"/>
		<stop  offset="0.1751" style="stop-color:#88B7D3;stop-opacity:0.1751"/>
		<stop  offset="0.4483" style="stop-color:#BBD6E6;stop-opacity:0.4483"/>
		<stop  offset="0.6867" style="stop-color:#E0ECF4;stop-opacity:0.6867"/>
		<stop  offset="0.8787" style="stop-color:#F7FAFC;stop-opacity:0.8787"/>
		<stop  offset="1" style="stop-color:#FFFFFF"/>
	</linearGradient>
	<rect x="423.2" y="46.1" class="st15" width="21.9" height="179"/>
</g>
<line class="st5" x1="539.5" y1="503.9" x2="539.5" y2="515.9"/>
<line class="st5" x1="18.3" y1="505.4" x2="18.3" y2="517.5"/>
</svg>
